<?xml version="1.0" encoding="UTF-8" standalone="no"?>
<svg
   width="500"
   height="500"
   viewBox="0 0 500 500"
   fill="none"
   version="1.1"
   id="svg4"
   sodipodi:docname="spiderweb.svg"
   inkscape:version="1.1.2 (0a00cf5339, 2022-02-04)"
   xmlns:inkscape="http://www.inkscape.org/namespaces/inkscape"
   xmlns:sodipodi="http://sodipodi.sourceforge.net/DTD/sodipodi-0.dtd"
   xmlns="http://www.w3.org/2000/svg"
   xmlns:svg="http://www.w3.org/2000/svg">
  <defs
     id="defs8" />
  <sodipodi:namedview
     id="namedview6"
     pagecolor="#ffffff"
     bordercolor="#666666"
     borderopacity="1.0"
     inkscape:pageshadow="2"
     inkscape:pageopacity="0.0"
     inkscape:pagecheckerboard="0"
     showgrid="false"
     inkscape:zoom="0.745"
     inkscape:cx="328.18792"
     inkscape:cy="177.18121"
     inkscape:window-width="1894"
     inkscape:window-height="1076"
     inkscape:window-x="0"
     inkscape:window-y="0"
     inkscape:window-maximized="1"
     inkscape:current-layer="svg4" />
  <path
     fill-rule="evenodd"
     clip-rule="evenodd"
     d="M248.451 97.0369C248.217 99.8072 248.025 103.78 248.025 105.864V109.654L243.581 112.099C229.813 119.674 208.338 125.252 190.092 125.993L181.204 126.354L176.672 119.381C174.18 115.546 139.646 35 139.321 35C137.737 35 170.545 114.813 173.591 120.882C175.425 124.536 176.925 127.833 176.925 128.208C176.925 129.301 171.864 137.331 167.815 142.663C160.367 152.469 143.104 168.192 135.65 171.958C133.911 172.837 131.493 174.295 130.278 175.198C127.721 177.098 127.47 177.044 120.083 172.989C117.429 171.533 63.1024 149.5 62.5 149.5C60.3367 149.5 113.13 172.242 116.523 174.311C118.424 175.471 121.315 177.429 122.948 178.662L125.917 180.904L125.447 188.76C124.826 199.133 121.563 214.78 117.893 224.983C114.991 233.05 108.405 246.565 106.911 247.521C106.495 247.787 104.344 248.009 102.132 248.015C95.3957 248.032 33 251.194 33 252.5C33 253.495 93.0198 251.208 99.8809 251.618L107.761 252.088L111.715 260.096C113.89 264.5 116.716 271.087 117.997 274.733C122.408 287.295 125.904 306.234 125.458 315.155L125.246 319.413L119.172 323.384C113.397 327.159 55.026 356.596 56.5 357.507C56.8581 357.728 117.458 328.13 121.233 326.176L128.096 322.624L129.962 324.049C130.989 324.833 133.749 326.627 136.096 328.036C146.155 334.074 158.973 345.947 167.915 357.507C172.151 362.984 176.925 370.456 176.925 371.609C176.925 371.957 175.425 375.249 173.592 378.925C170.525 385.075 138.931 436 140.532 436C140.864 436 174.374 383.823 176.925 380.021C180.503 374.688 181.898 373.11 183.029 373.114C188.105 373.134 203.496 374.596 207.745 375.463C220.611 378.084 245.774 387.166 247.521 389.819C247.787 390.224 248.011 392.035 248.019 393.846C248.026 395.656 247.787 447.512 248.019 450.5C248.373 455.05 248.627 455.931 249.583 455.931C250.558 455.931 251.222 407.068 251.585 401.581C251.819 398.051 252.172 393.799 252.37 392.133L252.73 389.104L257.454 387.066C271.1 381.183 281.552 377.75 291.909 375.752C298.754 374.431 316.658 372.779 318.106 373.334C318.533 373.498 320.868 376.625 323.295 380.283C325.723 383.941 355.964 433.5 356.5 433.5C357.991 433.5 329.926 386.072 326.272 378.572L322.885 371.62L324.791 368.056C331.64 355.245 349.784 336.766 364.276 327.84C367.143 326.075 370.093 324.247 370.834 323.779C372.019 323.029 372.985 323.331 378.927 326.313C382.639 328.176 446.154 361.088 446.5 360.874C447.949 359.979 386.578 327.142 380.828 323.384L374.754 319.414L374.536 315.814C373.7 302.016 379.768 277.953 388.824 259.15L392.186 252.169L397.23 251.743C400.004 251.508 403.562 251.317 405.137 251.317C407.492 251.317 470 249.688 470 248.679C470 247.279 404.789 248.032 397.868 248.015C395.656 248.009 393.506 247.787 393.089 247.521C391.806 246.701 385.207 233.554 382.767 226.958C378.191 214.585 375.254 200.668 374.638 188.429L374.239 180.514L380.586 176.328C386.475 172.445 451.92 137.085 449.5 137.085C448.95 137.085 382.014 171.807 378.444 173.598L371.954 176.856L369.733 175.194C368.512 174.279 366.328 172.924 364.879 172.182C359.091 169.217 347.818 159.838 339.756 151.278C332.219 143.276 323.075 130.439 323.075 127.86C323.075 127.345 324.586 124.096 326.433 120.641C329.471 114.955 367.806 53 366.162 53C365.837 53 325.82 115.546 323.328 119.381L318.796 126.354L309.579 125.996C299.542 125.607 292.114 124.49 281.929 121.84C274.564 119.925 262.88 115.587 256.758 112.497C252.167 110.179 252.4 110.816 251.605 98.4187C251.251 92.8868 252.604 30.5 251.605 30.5C250.637 30.5 248.806 92.8295 248.451 97.0369ZM246.903 136.602L246.768 157.504L244.025 159.079C237.318 162.929 223.399 166.53 211.817 167.411L206.221 167.836L197.842 153.124C193.234 145.033 188.724 137.194 187.818 135.704L186.173 132.995L191.918 132.531C208.337 131.204 226.232 126.067 241.33 118.347C244.107 116.928 246.527 115.751 246.708 115.733C246.889 115.714 246.977 125.106 246.903 136.602ZM257.099 117.928C272.373 125.651 291.719 131.158 308.427 132.538C311.415 132.785 313.858 133.118 313.858 133.277C313.858 133.436 313.017 134.805 311.989 136.319C310.961 137.833 307.958 142.922 305.316 147.629C294.056 167.687 294.042 167.708 291.694 167.708C282.574 167.708 264.429 163.429 256.419 159.388L253.292 157.811V137.085C253.292 125.685 253.45 116.358 253.643 116.358C253.836 116.358 255.391 117.065 257.099 117.928ZM194.124 159.341C197.699 165.42 200.625 170.552 200.625 170.744C200.625 171.698 193.974 180.221 189.608 184.862C184.679 190.101 175.77 197.308 171.999 199.106C170.022 200.049 169.867 199.977 153.788 190.578L137.571 181.098L145.233 175.39C158.331 165.633 168.968 154.476 178.176 140.838L180.982 136.68L184.303 142.484C186.129 145.676 190.548 153.261 194.124 159.341ZM322.746 141.886C330.114 153.256 343.497 167.145 355.823 176.213L362.462 181.097L346.244 190.585C330.122 200.017 330.016 200.067 328.016 199.113C324.231 197.308 315.329 190.11 310.392 184.862C306.12 180.321 299.375 171.703 299.375 170.787C299.375 170.618 302.122 165.783 305.48 160.042C308.838 154.301 313.208 146.722 315.191 143.199C317.174 139.677 318.944 136.797 319.125 136.8C319.306 136.804 320.935 139.092 322.746 141.886ZM247.513 182.505L247.696 203.227L243.934 204.915C240.584 206.418 229.378 208.553 228.682 207.821C228.181 207.293 209.183 173.064 209.183 172.689C209.183 172.484 210.181 172.317 211.401 172.317C218.276 172.317 234.958 167.746 242.725 163.735C244.735 162.696 246.593 161.833 246.854 161.815C247.116 161.798 247.413 171.108 247.513 182.505ZM266.193 167.292C273.637 169.96 279.784 171.396 286.373 172.009C288.817 172.236 290.817 172.562 290.817 172.733C290.817 172.904 286.46 180.879 281.135 190.455C270.311 209.919 271.796 208.452 264.154 207.224C261.982 206.875 258.501 205.919 256.419 205.1L252.633 203.611L252.637 189.115C252.639 181.144 252.83 171.749 253.063 168.24L253.485 161.859L256.515 163.385C258.182 164.224 262.537 165.983 266.193 167.292ZM214.231 193.198L224.216 210.083L221.28 213.9C219.665 215.998 216.424 219.085 214.078 220.759L209.814 223.802L195.509 215.277C187.641 210.588 180.241 206.198 179.065 205.521C177.888 204.845 176.925 204.093 176.925 203.85C176.925 203.608 177.74 202.882 178.735 202.239C185.828 197.65 196.718 186.698 201.453 179.394C202.568 177.674 203.653 176.277 203.863 176.29C204.073 176.304 208.739 183.912 214.231 193.198ZM298.153 178.724C302.568 185.868 314.161 197.665 321.265 202.243C322.26 202.884 323.075 203.608 323.075 203.85C323.075 204.093 322.113 204.845 320.935 205.521C319.758 206.198 312.359 210.588 304.491 215.277L290.186 223.802L285.922 220.759C283.576 219.085 280.336 215.999 278.721 213.9L275.785 210.085L282.478 198.882C286.159 192.72 290.652 185.117 292.462 181.987C294.273 178.857 295.952 176.288 296.194 176.28C296.436 176.273 297.318 177.373 298.153 178.724ZM136.665 188.009C138.512 189.288 161.268 202.31 164.91 204.173C166.921 205.201 167.05 205.48 167.05 208.785C167.05 217.289 163.118 232.215 158.405 241.606L155.844 246.708H137.073H118.303L119.245 245.227C120.936 242.567 125.391 231.401 127.846 223.667C130.338 215.819 133.039 201.657 133.841 192.231C134.095 189.244 134.441 186.8 134.611 186.8C134.779 186.8 135.704 187.344 136.665 188.009ZM366.162 192.89C367.265 207.354 372.069 226.309 377.754 238.631C381.965 247.759 383.933 246.708 362.628 246.708H344.158L341.808 242.041C336.851 232.198 333.953 221.097 333.454 210.038L333.24 205.296L345.109 198.597C351.638 194.912 358.757 190.776 360.929 189.404C363.102 188.032 365.063 186.886 365.288 186.855C365.513 186.825 365.906 189.54 366.162 192.89ZM248.229 225.771C248.457 235.98 248.587 247.162 248.5 247.25C248.412 247.336 247.228 242.521 245.885 239.919C244.542 237.317 240.633 230.012 237.199 223.686L230.956 212.185L234.757 211.409C236.847 210.983 240.317 209.897 242.468 208.996C244.619 208.094 246.702 207.324 247.097 207.283C247.59 207.231 247.943 212.994 248.229 225.771ZM265.258 211.403L268.996 212.175L264.718 220.06C262.366 224.397 258.383 231.882 255.868 236.693L250.5 247.5L251.66 230.439C251.861 222.188 252.184 213.607 252.377 211.37L252.728 207.303L257.124 208.967C259.542 209.883 263.203 210.979 265.258 211.403ZM191.06 218.917L207.499 228.116L207.298 230.905C207.006 234.943 205.491 240.319 203.582 244.086L201.919 247.367L191.233 247.364C185.355 247.363 176.807 247.17 172.238 246.937L163.929 246.514L165.75 242.496C169.866 233.413 172.96 220.729 172.97 212.898C172.974 210.073 173.195 209.133 173.798 209.38C174.251 209.566 182.018 213.857 191.06 218.917ZM327.233 215.273C327.727 222.757 330.001 231.936 333.421 240.24L336.007 246.521L328.718 246.941C324.709 247.172 316.176 247.362 309.755 247.363L298.081 247.367L296.419 244.088C294.551 240.402 292.816 233.744 292.802 230.207C292.793 228.216 293.116 227.696 294.931 226.777C296.108 226.181 303.588 222 311.554 217.486C319.52 212.971 326.216 209.256 326.434 209.231C326.653 209.204 327.013 211.923 327.233 215.273ZM234.689 227.137C238.76 233.746 243.97 241.751 245.251 243.696C247.822 247.6 247.89 248.361 245.5 246.5C244.14 245.442 237.076 240.517 218.845 229.261L215.011 226.893L218.187 224.309C219.933 222.889 222.542 220.237 223.983 218.417C225.424 216.597 226.757 215.111 226.945 215.114C227.133 215.117 230.619 220.528 234.689 227.137ZM275.974 218.362C277.392 220.152 279.83 222.685 281.393 223.991C282.955 225.297 284.233 226.605 284.233 226.898C284.233 227.19 282.382 228.553 280.119 229.927C270.973 235.48 256.816 244.384 255.33 245.519C254.461 246.183 251.727 248.131 251.597 248C251.466 247.869 254.538 244.355 256.083 242.036C257.629 239.717 261.99 232.711 265.774 226.465C269.558 220.218 272.822 215.108 273.026 215.108C273.23 215.108 274.556 216.572 275.974 218.362ZM222.26 236.132C226.836 238.643 233.986 242.493 238.15 244.688L246.5 249L235.187 248.332C229.394 248.142 221.089 247.82 216.732 247.618L208.81 247.251L210.628 241.878C211.628 238.922 212.453 235.394 212.461 234.035C212.468 232.668 212.802 231.567 213.208 231.567C213.612 231.567 217.685 233.621 222.26 236.132ZM287.809 235.023C288.049 236.924 288.912 240.452 289.726 242.864L291.206 247.25L283.276 247.617C268.962 248.281 252.434 248.926 252.728 248.679C252.887 248.546 259.529 245.837 265.142 242.916C270.754 239.995 277.716 236.249 280.612 234.591C283.509 232.933 286.216 231.575 286.626 231.571C287.037 231.569 287.57 233.122 287.809 235.023ZM246.5 250.5C246.5 250.755 213.378 268.433 212.904 268.433C212.77 268.433 212.496 266.849 212.296 264.914C212.096 262.978 211.196 259.275 210.295 256.685L208.657 251.975L218.301 251.9C226.759 251.834 245.88 250.662 246.335 250.353C246.426 250.292 246.5 250.358 246.5 250.5ZM274.052 251.726C289.691 252.135 291.487 252.294 291.076 253.231C289.469 256.891 288.181 261.375 287.798 264.648C287.555 266.73 287.207 268.433 287.027 268.433C286.846 268.433 283.256 266.543 279.047 264.231C274.839 261.92 267.841 258.173 263.496 255.905C256.118 252.053 249.965 249.798 252.728 250.77C253.357 250.991 264.435 251.475 274.052 251.726ZM203.171 254.444C205.137 258.309 207.208 265.658 207.208 268.769V271.6L202.106 274.53C199.3 276.141 195.227 278.437 193.054 279.632C190.882 280.827 185.749 283.684 181.647 285.982C177.546 288.279 173.917 290.158 173.583 290.158C173.248 290.158 172.975 288.568 172.975 286.624C172.975 278.867 169.265 264.223 165.329 256.44C164.465 254.733 163.758 253.182 163.758 252.995C163.758 252.807 172.128 252.57 182.356 252.468C192.585 252.366 201.17 252.213 201.435 252.129C201.699 252.044 202.48 253.086 203.171 254.444ZM319.195 252.551C332.675 252.616 336.304 252.811 336.02 253.456C330.408 266.187 328.313 273.406 327.107 284.184C326.775 287.153 326.369 289.717 326.205 289.881C326.041 290.044 323.271 288.703 320.047 286.9C316.825 285.097 309.487 281.019 303.742 277.838C297.996 274.657 293.132 271.637 292.932 271.126C292.287 269.473 294.198 260.311 296.037 256.254C297.699 252.585 297.975 252.31 299.917 252.386C301.068 252.432 309.742 252.506 319.195 252.551ZM158.794 258.704C163.515 268.753 167.499 284.94 166.936 291.79C166.725 294.356 166.59 294.484 160.138 298.206C156.517 300.295 151.925 302.896 149.933 303.987C147.942 305.077 145.868 306.261 145.325 306.617C144.782 306.973 142.08 308.573 139.321 310.171L134.305 313.076L133.859 307.378C132.642 291.79 128.804 276.137 122.858 262.508C121.041 258.344 119.414 254.493 119.244 253.95C118.973 253.091 121.343 252.939 137.428 252.779L155.924 252.596L158.794 258.704ZM381.005 253.374C381.007 253.6 379.942 256.119 378.639 258.97C375.222 266.446 372.141 275.216 370.188 283.023C368.316 290.505 365.875 305.994 365.87 310.417L365.867 313.23L364.097 312.063C363.124 311.421 355.792 307.171 347.803 302.618C330.968 293.023 332.175 294.742 333.923 282.817C335.107 274.748 337.718 266.248 341.533 258.054L344.066 252.613L362.534 252.787C372.691 252.884 381.003 253.147 381.005 253.374ZM246.5 253.5C244.776 256.012 230.548 279.13 228.871 282.089C228 283.625 227.139 284.882 226.958 284.882C226.777 284.882 225.921 283.843 225.056 282.572C224.19 281.301 221.636 278.534 219.379 276.423L215.276 272.585L228.194 264.614C235.299 260.231 242.797 254.632 244.064 253.727C246.952 251.667 247.813 251.586 246.5 253.5ZM260.338 257.453C263.886 259.741 269.898 263.489 273.7 265.781C277.502 268.073 281.557 270.585 282.712 271.364L284.811 272.78L281.518 275.617C279.706 277.178 277.065 279.92 275.649 281.711L273.075 284.969L270.874 281.474C269.665 279.552 265.646 273.091 261.943 267.117C258.242 261.142 254.744 255.588 254.172 254.773C253.599 253.958 251.388 251.726 251.597 251.726C251.806 251.726 256.792 255.164 260.338 257.453ZM248.292 272.877C248.085 282.925 247.804 291.508 247.668 291.951C247.494 292.518 246.062 292.178 242.821 290.799C240.291 289.722 236.65 288.601 234.729 288.309C232.809 288.016 231.298 287.498 231.372 287.157C231.447 286.817 234.785 280.464 238.792 273.042C242.798 265.619 246.571 258.435 247.177 257.077C247.783 255.72 248.892 252.5 249 252.5C249.107 252.5 248.5 262.83 248.292 272.877ZM265.685 281.241C267.51 284.484 268.884 287.329 268.737 287.566C268.591 287.802 267.005 288.169 265.212 288.382C263.419 288.594 259.885 289.647 257.358 290.723L252.765 292.677L252.474 291.156C252.315 290.32 252.135 285.829 252.076 281.175C252.017 276.52 251.801 268.565 251.597 263.496L250.5 252.5L256.796 264.812C259.86 270.606 263.86 277.999 265.685 281.241ZM214.414 279.268C218.494 282.408 224.492 288.71 224.183 289.532C223.689 290.846 204.229 323.075 203.93 323.074C203.742 323.074 201.81 320.677 199.637 317.748C195.334 311.945 186.702 303.297 180.693 298.766C178.601 297.189 177.069 295.718 177.288 295.497C178.302 294.473 208.958 276.393 209.727 276.365C210.207 276.348 212.316 277.654 214.414 279.268ZM306.981 285.934C315.833 291.214 323.075 295.641 323.075 295.771C323.075 295.902 320.91 297.639 318.263 299.631C312.157 304.227 303.908 312.805 299.686 318.952L296.412 323.717L295.238 322.244C294.592 321.434 293.472 319.654 292.749 318.288C292.025 316.922 287.89 309.856 283.559 302.586L275.684 289.366L278.148 286.221C280.438 283.299 289.006 276.333 290.31 276.333C290.628 276.333 298.129 280.653 306.981 285.934ZM242.779 294.246L247.037 295.764L247.211 316.661C247.335 331.549 247.176 337.558 246.66 337.558C246.261 337.558 243.664 336.56 240.888 335.34C232.149 331.497 223.988 329.003 216.629 327.926C212.715 327.354 209.441 326.82 209.353 326.741C209.266 326.662 213.551 318.804 218.876 309.278L228.558 291.96L233.538 292.344C236.278 292.555 240.436 293.411 242.779 294.246ZM278.671 304.806C288.195 321.789 290.817 326.518 290.817 326.712C290.817 326.802 289.41 327.073 287.69 327.315C279.418 328.477 270.679 330.797 263.496 333.739C259.151 335.519 255.109 337.132 254.514 337.325C253.562 337.633 253.38 336.627 252.99 328.894C252.747 324.064 252.641 314.641 252.755 307.953L252.962 295.794L256.254 294.566C260.49 292.985 263.976 292.295 268.188 292.206L271.564 292.133L278.671 304.806ZM177.347 304.096C184.643 309.239 193.132 317.851 198.234 325.283L200.78 328.993L192.014 343.974C187.192 352.213 182.815 359.818 182.287 360.874C181.156 363.137 181.722 363.669 174.95 353.973C167.414 343.183 151.004 327.399 140.532 320.866C138.8 319.786 137.615 318.69 137.898 318.43C138.181 318.169 143.449 315.063 149.604 311.527C155.76 307.991 162.869 303.841 165.404 302.304C170.66 299.117 170.182 299.045 177.347 304.096ZM351.555 312.194L362.59 318.61L358.797 321.301C343.394 332.232 327.483 348.501 320.877 360.073C320.094 361.443 319.306 362.564 319.125 362.564C318.944 362.564 316.324 358.345 313.302 353.189C307.334 343.005 304.19 337.664 301.261 332.742C300.224 330.998 299.375 329.297 299.375 328.962C299.375 328.182 303.108 323.111 307.102 318.467C311.678 313.146 320.135 305.634 325.247 302.349L329.723 299.472L335.122 302.625C338.092 304.36 345.486 308.665 351.555 312.194ZM224.654 333.952C227.551 334.551 233.709 336.57 238.339 338.439L246.757 341.838L246.897 362.74C246.974 374.236 246.858 383.642 246.639 383.642C246.419 383.642 242.558 381.881 238.059 379.729C224.02 373.014 209.619 368.967 193.236 367.137L186.178 366.349L187.385 364.626C188.048 363.679 192.533 355.975 197.352 347.505L206.113 332.106L212.75 332.485C216.401 332.693 221.757 333.354 224.654 333.952ZM295.871 335.419C296.964 337.139 298.828 340.323 300.016 342.496C306.153 353.726 311.056 362.324 312.621 364.602L313.788 366.301L304.771 367.407C289.181 369.32 275.816 373.176 261.915 379.769C257.425 381.899 253.574 383.642 253.357 383.642C253.14 383.642 253.045 374.181 253.145 362.617L253.327 341.592L260.057 338.993C273.489 333.807 278.948 332.569 289.225 332.378L293.886 332.292L295.871 335.419Z"
     fill="#080809"
     id="path2"
     style="fill:#b20077;fill-opacity:1" />
</svg>
